<svg aria-hidden="true" style="position: absolute; width: 0; height: 0; overflow: hidden;" version="1.1" xmlns="http://www.w3.org/2000/svg" xmlns:xlink="http://www.w3.org/1999/xlink">
<defs>
<symbol id="icon-check" viewBox="0 0 32 32">
<path d="M5 16c0-0.001 0-0.001 0-0.002 0-6.075 4.925-11 11-11 2.025 0 3.922 0.547 5.552 1.502l-0.052-0.028c0.142 0.082 0.313 0.131 0.494 0.131 0.552 0 1-0.448 1-1 0-0.366-0.196-0.686-0.49-0.86l-0.005-0.003c-1.865-1.095-4.107-1.742-6.5-1.742-7.18 0-13 5.82-13 13s5.82 13 13 13c7.179 0 12.999-5.819 13-12.998v-0c0-0.552-0.448-1-1-1s-1 0.448-1 1v0c0 6.075-4.925 11-11 11s-11-4.925-11-11v0z"></path>
<path d="M30.708 6.708c0.181-0.181 0.293-0.431 0.293-0.708 0-0.553-0.448-1.001-1.001-1.001-0.276 0-0.527 0.112-0.708 0.293v0l-13.292 13.294-5.292-5.294c-0.181-0.181-0.431-0.293-0.708-0.293-0.553 0-1.001 0.448-1.001 1.001 0 0.277 0.112 0.527 0.293 0.708v0l6 6c0.181 0.181 0.431 0.294 0.708 0.294s0.527-0.112 0.708-0.294l14-14z"></path>
</symbol>
<symbol id="icon-telegram" viewBox="0 0 32 32">
<path fill="#40b3e0" style="fill: var(--color1, #40b3e0)" d="M16 0c-8.837 0-16 7.163-16 16s7.163 16 16 16 16-7.163 16-16-7.163-16-16-16z"></path>
<path fill="#fff" style="fill: var(--color2, #fff)" d="M23.785 9.204l-2.858 14.409s-0.4 0.999-1.499 0.52l-6.595-5.056-2.398-1.159-4.037-1.359s-0.62-0.22-0.679-0.699c-0.060-0.48 0.699-0.739 0.699-0.739l16.047-6.295s1.319-0.579 1.319 0.38z"></path>
<path fill="#d2e5f1" style="fill: var(--color3, #d2e5f1)" d="M12.327 23.45s-0.193-0.018-0.432-0.777c-0.24-0.759-1.459-4.756-1.459-4.756l9.692-6.155s0.56-0.34 0.54 0c0 0 0.1 0.060-0.2 0.34s-7.614 6.854-7.614 6.854z"></path>
<path fill="#b5cfe4" style="fill: var(--color4, #b5cfe4)" d="M15.363 21.014l-2.608 2.378s-0.204 0.155-0.427 0.058l0.499-4.418z"></path>
</symbol>
</defs>
</svg>
