<svg aria-hidden="true" style="position: absolute; width: 0; height: 0; overflow: hidden;" version="1.1" xmlns="http://www.w3.org/2000/svg" xmlns:xlink="http://www.w3.org/1999/xlink">
<defs>
<symbol id="icon-check" viewBox="0 0 32 32">
<path d="M5 16c0-0.001 0-0.001 0-0.002 0-6.075 4.925-11 11-11 2.025 0 3.922 0.547 5.552 1.502l-0.052-0.028c0.142 0.082 0.313 0.131 0.494 0.131 0.552 0 1-0.448 1-1 0-0.366-0.196-0.686-0.49-0.86l-0.005-0.003c-1.865-1.095-4.107-1.742-6.5-1.742-7.18 0-13 5.82-13 13s5.82 13 13 13c7.179 0 12.999-5.819 13-12.998v-0c0-0.552-0.448-1-1-1s-1 0.448-1 1v0c0 6.075-4.925 11-11 11s-11-4.925-11-11v0z"></path>
<path d="M30.708 6.708c0.181-0.181 0.293-0.431 0.293-0.708 0-0.553-0.448-1.001-1.001-1.001-0.276 0-0.527 0.112-0.708 0.293v0l-13.292 13.294-5.292-5.294c-0.181-0.181-0.431-0.293-0.708-0.293-0.553 0-1.001 0.448-1.001 1.001 0 0.277 0.112 0.527 0.293 0.708v0l6 6c0.181 0.181 0.431 0.294 0.708 0.294s0.527-0.112 0.708-0.294l14-14z"></path>
</symbol>
<symbol id="icon-telegram" viewBox="0 0 32 32">
<path d="M16 0c-8.837 0-16 7.163-16 16s7.163 16 16 16 16-7.163 16-16-7.163-16-16-16z"></path>
<path fill="#fff" style="fill: var(--color2, #fff)" d="M23.785 9.204l-2.858 14.409s-0.4 0.999-1.499 0.52l-6.595-5.056-2.398-1.159-4.037-1.359s-0.62-0.22-0.679-0.699c-0.060-0.48 0.699-0.739 0.699-0.739l16.047-6.295s1.319-0.579 1.319 0.38z"></path>
<path fill="#d2e5f1" style="fill: var(--color3, #d2e5f1)" d="M12.327 23.45s-0.193-0.018-0.432-0.777c-0.24-0.759-1.459-4.756-1.459-4.756l9.692-6.155s0.56-0.34 0.54 0c0 0 0.1 0.060-0.2 0.34s-7.614 6.854-7.614 6.854z"></path>
<path fill="#b5cfe4" style="fill: var(--color4, #b5cfe4)" d="M15.363 21.014l-2.608 2.378s-0.204 0.155-0.427 0.058l0.499-4.418z"></path>
</symbol>
<symbol id="icon-mail" viewBox="0 0 32 32">
<path d="M32 16c0 8.837-7.163 16-16 16s-16-7.163-16-16c0-8.837 7.163-16 16-16s16 7.163 16 16z"></path>
<path fill="#fff" style="fill: var(--color2, #fff)" d="M16 17.863l9.25-8.031h-18.5l9.25 8.031zM13.5 16.988l2.5 2.038 2.444-2.038 6.75 5.819h-18.444l6.75-5.819zM6.169 22.169v-11.694l6.75 5.819-6.75 5.875zM25.831 22.169v-11.694l-6.75 5.819 6.75 5.875z"></path>
</symbol>
<symbol id="icon-instagram" viewBox="0 0 32 32">
<path d="M32.001 16.001c0 8.837-7.164 16.001-16.001 16.001s-16.001-7.164-16.001-16.001c0-8.837 7.164-16.001 16.001-16.001s16.001 7.164 16.001 16.001z"></path>
<path fill="#fff" style="fill: var(--color2, #fff)" d="M16.021 9.208c2.219 0 2.483 0.008 3.358 0.048 0.81 0.037 1.25 0.173 1.543 0.286 0.389 0.151 0.665 0.331 0.958 0.621 0.29 0.291 0.47 0.567 0.621 0.956 0.114 0.293 0.249 0.733 0.286 1.543 0.040 0.876 0.048 1.138 0.048 3.358 0 2.218-0.009 2.482-0.048 3.357-0.037 0.81-0.172 1.25-0.286 1.543-0.151 0.389-0.331 0.665-0.621 0.958-0.293 0.29-0.568 0.469-0.958 0.621-0.292 0.114-0.733 0.249-1.543 0.286-0.875 0.040-1.139 0.048-3.358 0.048s-2.482-0.009-3.358-0.048c-0.81-0.037-1.25-0.172-1.543-0.286-0.388-0.151-0.665-0.331-0.956-0.621-0.291-0.293-0.47-0.568-0.621-0.958-0.114-0.292-0.25-0.733-0.287-1.543-0.040-0.875-0.048-1.139-0.048-3.357 0-2.22 0.008-2.482 0.048-3.358 0.037-0.81 0.173-1.251 0.287-1.543 0.151-0.388 0.33-0.665 0.621-0.956 0.291-0.29 0.568-0.471 0.956-0.621 0.293-0.114 0.733-0.249 1.543-0.286 0.876-0.040 1.139-0.048 3.358-0.048zM16.021 7.71c-2.256 0-2.54 0.009-3.426 0.050-0.884 0.041-1.489 0.181-2.017 0.386-0.546 0.212-1.010 0.496-1.472 0.959-0.463 0.462-0.747 0.925-0.959 1.472-0.206 0.529-0.345 1.133-0.386 2.018-0.041 0.886-0.050 1.169-0.050 3.426s0.009 2.539 0.050 3.426c0.041 0.885 0.18 1.489 0.386 2.017 0.212 0.548 0.496 1.012 0.959 1.473 0.462 0.462 0.926 0.746 1.472 0.959 0.528 0.204 1.134 0.345 2.017 0.386 0.886 0.040 1.171 0.050 3.426 0.050 2.257 0 2.54-0.010 3.426-0.050 0.885-0.041 1.489-0.182 2.017-0.386 0.547-0.213 1.012-0.497 1.472-0.959 0.463-0.462 0.747-0.925 0.96-1.473 0.204-0.528 0.345-1.131 0.386-2.017 0.040-0.886 0.048-1.168 0.048-3.426s-0.009-2.54-0.048-3.426c-0.041-0.885-0.182-1.489-0.386-2.018-0.213-0.546-0.497-1.010-0.96-1.472-0.46-0.462-0.925-0.746-1.472-0.959-0.528-0.205-1.132-0.346-2.017-0.386-0.886-0.040-1.169-0.050-3.426-0.050zM16.021 11.753c-2.357 0-4.267 1.911-4.267 4.268s1.911 4.267 4.267 4.267c2.358 0 4.267-1.909 4.267-4.267s-1.909-4.268-4.267-4.268zM16.021 18.79c-1.53 0-2.77-1.239-2.77-2.769s1.24-2.771 2.77-2.771c1.531 0 2.77 1.24 2.77 2.771s-1.239 2.769-2.77 2.769zM21.454 11.585c0-0 0-0 0-0.001 0-0.55-0.446-0.996-0.996-0.996-0 0-0 0-0.001 0h0c-0.551 0-0.997 0.447-0.997 0.997v0c0 0.551 0.446 0.997 0.997 0.997s0.997-0.446 0.997-0.997v0z"></path>
</symbol>
<symbol id="icon-facebook" viewBox="0 0 32 32">
<path d="M27.333 4.667c3 3 4.667 7.067 4.667 11.333s-1.667 8.333-4.667 11.333-7.067 4.667-11.333 4.667-8.333-1.667-11.333-4.667-4.667-7.067-4.667-11.333 1.667-8.333 4.667-11.333 7.067-4.667 11.333-4.667 8.333 1.667 11.333 4.667z"></path>
<path fill="#fff" style="fill: var(--color2, #fff)" d="M18.133 31.867q-1 0.133-2.133 0.133c-0.8 0-1.6-0.067-2.4-0.2v-11.533h-3.933v-4.2h3.933v-2.8c0-4.667 2.267-6.667 6.133-6.667 1.8 0 2.8 0.133 3.267 0.2v3.667h-2.6c-1.667 0-2.267 1.533-2.267 3.267v2.333h4.8l-0.6 4.2h-4.2z"></path>
</symbol>
</defs>
</svg>
