<svg width="93" height="30" viewBox="0 0 93 30" fill="none" xmlns="http://www.w3.org/2000/svg">
<path fill-rule="evenodd" clip-rule="evenodd" d="M82.0652 27.7358C86.337 27.7358 89.8 24.2724 89.8 20C89.8 15.7276 86.337 12.2642 82.0652 12.2642C77.7933 12.2642 74.3303 15.7276 74.3303 20C74.3303 24.2724 77.7933 27.7358 82.0652 27.7358ZM82.0652 30C87.5873 30 92.0639 25.5228 92.0639 20C92.0639 14.4772 87.5873 10 82.0652 10C76.543 10 72.0664 14.4772 72.0664 20C72.0664 25.5228 76.543 30 82.0652 30Z" fill="white"/>
<path fill-rule="evenodd" clip-rule="evenodd" d="M67.3496 12.2642H56.6878L55.1786 10H71.8774L58.8601 27.7358H69.1391L70.6483 30H53.9551L67.3496 12.2642Z" fill="white"/>
<path fill-rule="evenodd" clip-rule="evenodd" d="M32.4479 10H17.3555V30H33.9572L32.4479 27.7358H19.6193V20.9434H29.0521V18.6792H19.6193V12.2642H30.9387L32.4479 10Z" fill="white"/>
<path fill-rule="evenodd" clip-rule="evenodd" d="M0 10H2.26387V27.7356H15.0924L13.5832 29.9998H0V10Z" fill="white"/>
<path fill-rule="evenodd" clip-rule="evenodd" d="M43.9558 30C49.4779 30 53.9545 25.5228 53.9545 20C53.9545 19.81 53.9492 19.6213 53.9388 19.434H52.4453L51.8793 20.1887H51.6884C51.5882 24.3739 48.1646 27.7358 43.9558 27.7358C39.6839 27.7358 36.2209 24.2724 36.2209 20C36.2209 15.7276 39.6839 12.2642 43.9558 12.2642C46.4625 12.2642 48.6907 13.4567 50.1041 15.3055L51.8975 13.9235C50.0701 11.5382 47.1925 10 43.9558 10C38.4336 10 33.957 14.4772 33.957 20C33.957 25.5228 38.4336 30 43.9558 30Z" fill="url(#paint0_radial_172_27897)"/>
<path d="M43.7672 18.6792H53.9546V19.8113L53.3886 20.9434H43.7672V18.6792Z" fill="url(#paint1_radial_172_27897)"/>
<path d="M46.031 19.8113C46.031 20.8534 45.1863 21.6981 44.1444 21.6981C43.1025 21.6981 42.2579 20.8534 42.2579 19.8113C42.2579 18.7693 43.1025 17.9245 44.1444 17.9245C45.1863 17.9245 46.031 18.7693 46.031 19.8113Z" fill="url(#paint2_radial_172_27897)"/>
<path d="M34.0257 2.79845L34.1471 2.71639C37.2779 0.693559 41.6119 0.0788632 45.0943 1.54781C47.9476 2.75201 49.919 5.8563 50.0678 8.92523C50.0903 9.08986 50.0628 9.25744 49.989 9.4063C49.8606 9.62253 49.5747 9.68109 49.3174 9.69676C48.226 9.76281 47.3381 9.2161 46.2784 9.09233C45.0532 8.9493 43.8159 8.94135 42.5889 9.06864C42.0258 9.10611 41.4723 9.23352 40.9495 9.44604C40.578 9.634 40.2175 9.84293 39.8697 10.0718C38.7523 10.7321 37.4789 11.0819 36.1811 11.0851C37.2112 9.63385 37.9069 7.78746 37.3547 6.01059C37.0311 4.96827 36.2129 4.04723 35.155 3.77952C34.0972 3.51182 32.8496 4.01559 32.4136 5.01971C32.2695 4.82127 32.0956 4.6462 31.8982 4.50065C31.7409 4.38218 33.5075 3.15686 34.0257 2.79845Z" fill="url(#paint3_radial_172_27897)"/>
<path d="M33.0961 6.0973C33.8898 5.69096 34.2039 4.71812 33.7975 3.9244C33.3912 3.13069 32.4184 2.81666 31.6246 3.223C30.8309 3.62934 30.5169 4.60217 30.9232 5.39589C31.3296 6.1896 32.3024 6.50363 33.0961 6.0973Z" fill="white"/>
<path d="M33.4071 3.43207C33.4446 3.55256 33.4684 3.67689 33.4781 3.80271C33.5026 4.11081 33.4433 4.41979 33.3063 4.69687C33.1694 4.97395 32.96 5.20878 32.7003 5.37643C32.4407 5.54408 32.1405 5.63829 31.8316 5.64907C31.5227 5.65985 31.2167 5.58678 30.946 5.43764C31.0592 5.64646 31.2171 5.82774 31.4084 5.96854C31.5997 6.10935 31.8197 6.2062 32.0527 6.25221C32.2858 6.29821 32.5261 6.29222 32.7565 6.23468C32.987 6.17713 33.2019 6.06945 33.386 5.9193C33.57 5.76915 33.7187 5.58024 33.8214 5.36604C33.924 5.15183 33.9782 4.91761 33.9799 4.68009C33.9816 4.44256 33.9309 4.20757 33.8314 3.99189C33.7319 3.7762 33.5861 3.58513 33.4042 3.43229L33.4071 3.43207Z" fill="#DEEFFF"/>
<path d="M50.5481 9.06662C50.5481 9.06662 50.4873 9.03213 50.3696 8.97449C50.2518 8.91684 50.0806 8.8256 49.8548 8.72407C49.2354 8.45145 48.5894 8.24376 47.9272 8.10432C47.4858 8.01048 47.0383 7.94824 46.5881 7.91805C46.084 7.88137 45.5777 7.88628 45.0744 7.93273C44.5368 7.98044 44.0043 8.07387 43.4826 8.21202C42.978 8.34721 42.481 8.50952 41.9939 8.69823C41.0564 9.06167 40.2242 9.43579 39.4875 9.69211C39.1572 9.8122 38.8194 9.91029 38.4762 9.98576C38.1924 10.0478 37.9041 10.0877 37.6141 10.1051C37.4827 10.1154 37.3634 10.113 37.2473 10.1134C37.1311 10.1137 37.0303 10.1056 36.9376 10.091C36.7813 10.0741 36.8394 10.0775 36.6876 10.0363C36.5148 10.0324 36.3287 10.0743 36.1158 10.1534C35.9029 10.2325 35.5389 10.3886 35.3061 10.6072C35.0404 10.8376 34.8233 11.1187 34.6675 11.4339C34.5727 11.6554 34.5294 11.8955 34.5409 12.1361C34.5523 12.3767 34.6181 12.6116 34.7335 12.8231L34.9529 12.9178C35.1586 13.0052 35.3695 13.0795 35.5846 13.1403C36.3035 13.3359 37.05 13.4103 37.7934 13.3605C38.2525 13.3324 38.7089 13.2692 39.1584 13.1715C39.6361 13.0692 40.1065 12.9356 40.5666 12.7714C41.4812 12.449 42.3479 12.0519 43.1521 11.7482C43.5295 11.6003 43.9148 11.4734 44.3062 11.3679C44.6527 11.2756 45.0064 11.2131 45.3635 11.181C45.697 11.1505 46.0325 11.1477 46.3665 11.1727C46.6676 11.1924 46.9669 11.2337 47.262 11.2961C47.7034 11.3881 48.1338 11.5265 48.5461 11.7089C48.6962 11.7713 48.8086 11.8337 48.8869 11.8697C48.9652 11.9058 49.0049 11.9303 49.0049 11.9303C49.1035 11.8972 49.1999 11.8577 49.2934 11.812C49.5253 11.7041 49.7443 11.5706 49.9465 11.414C50.226 11.2026 50.4446 10.921 50.5802 10.5978C50.7237 10.2221 50.7794 9.72398 50.5481 9.06662Z" fill="white"/>
<defs>
<radialGradient id="paint0_radial_172_27897" cx="0" cy="0" r="1" gradientUnits="userSpaceOnUse" gradientTransform="translate(53.4292 20) rotate(180) scale(19.316)">
<stop stop-color="#F33966"/>
<stop offset="1" stop-color="#FFAEDF"/>
</radialGradient>
<radialGradient id="paint1_radial_172_27897" cx="0" cy="0" r="1" gradientUnits="userSpaceOnUse" gradientTransform="translate(53.4292 20) rotate(180) scale(19.316)">
<stop stop-color="#F33966"/>
<stop offset="1" stop-color="#FFAEDF"/>
</radialGradient>
<radialGradient id="paint2_radial_172_27897" cx="0" cy="0" r="1" gradientUnits="userSpaceOnUse" gradientTransform="translate(53.4292 20) rotate(180) scale(19.316)">
<stop stop-color="#F33966"/>
<stop offset="1" stop-color="#FFAEDF"/>
</radialGradient>
<radialGradient id="paint3_radial_172_27897" cx="0" cy="0" r="1" gradientUnits="userSpaceOnUse" gradientTransform="translate(49.3022 5.06709) rotate(175.55) scale(17.1771 9.66258)">
<stop stop-color="#F33966"/>
<stop offset="1" stop-color="#FFAEDF"/>
</radialGradient>
</defs>
</svg>
