<?xml version="1.0" encoding="utf-8"?>
<!-- Generator: Adobe Illustrator 24.2.1, SVG Export Plug-In . SVG Version: 6.00 Build 0)  -->
<svg version="1.1" id="Слой_1" xmlns="http://www.w3.org/2000/svg" xmlns:xlink="http://www.w3.org/1999/xlink" x="0px" y="0px"
	 viewBox="0 0 98.4 52.126" style="enable-background:new 0 0 98.4 52.126;" xml:space="preserve">
<style type="text/css">
	.st0{fill:url(#SVGID_1_);}
	.st1{fill:url(#SVGID_2_);}
	.st2{fill:url(#SVGID_3_);}
	.st3{fill:#EAC28A;}
</style>
<g>
	
		<linearGradient id="SVGID_1_" gradientUnits="userSpaceOnUse" x1="13.1197" y1="139.1266" x2="13.1197" y2="177.5266" gradientTransform="matrix(1 0 0 -1 0 177.5275)">
		<stop  offset="0" style="stop-color:#F0C788"/>
		<stop  offset="0.25" style="stop-color:#E5C18B"/>
		<stop  offset="0.5" style="stop-color:#ACA498"/>
		<stop  offset="0.75" style="stop-color:#D6CDC3"/>
		<stop  offset="1" style="stop-color:#E6E6E6"/>
	</linearGradient>
	<path class="st0" d="M0.4,0.001c4.3,0,8.6,0,12.8,0c1.4,0,2.7,0.2,4,0.6c1.6,0.5,3,1.3,4.2,2.4c1.3,1.1,2.4,2.4,3.2,3.9
		c0.7,1.2,1.1,2.5,1.4,3.9s0.3,2.9,0.1,4.3c-0.2,2-0.9,3.9-2,5.6c-1.2,1.8-2.7,3.3-4.6,4.4c-0.5,0.3-1,0.5-1.5,0.7
		c-0.2,0.1-0.1,0.2-0.1,0.3c0.4,0.7,0.9,1.3,1.3,2c0.8,1.2,1.7,2.5,2.5,3.7c1.2,1.8,2.4,3.5,3.6,5.3c0.2,0.3,0.4,0.6,0.6,0.9
		c0,0.1,0.1,0.1,0,0.2c0,0-0.1,0.1-0.2,0.1c-2.7,0-5.4,0-8.1,0c-0.5,0-0.8-0.2-1.1-0.6c-2-3-4-6-6.1-9c-0.9-1.4-1.9-2.8-2.8-4.2
		c0,0-0.1-0.1-0.2-0.2c0,0.2,0,0.4,0,0.6c0,4.1,0,8.1,0,12.2c0,0.3,0,0.7,0,1c0,0.2-0.1,0.3-0.3,0.3c-2.3,0-4.5,0-6.8,0
		c-0.1,0-0.2,0-0.3,0C0.4,25.501,0.4,12.801,0.4,0.001z M7.8,7.701c0,0.1,0,0.2,0,0.4c0,3.6,0,7.1,0,10.7c0,0.4,0,0.4,0.4,0.4
		c1.8,0,3.5,0,5.3,0c0.4,0,0.7,0,1.1-0.1c1.9-0.5,3.3-1.7,4-3.6c0.5-1.5,0.5-3-0.1-4.4c-1.1-2.2-2.8-3.4-5.2-3.4c-1.7,0-3.4,0-5.1,0
		C8.1,7.701,8,7.701,7.8,7.701z"/>
	
		<linearGradient id="SVGID_2_" gradientUnits="userSpaceOnUse" x1="83.6" y1="139.2266" x2="83.6" y2="177.5266" gradientTransform="matrix(1 0 0 -1 0 177.5275)">
		<stop  offset="0" style="stop-color:#F0C788"/>
		<stop  offset="0.25" style="stop-color:#E5C18B"/>
		<stop  offset="0.5" style="stop-color:#ACA498"/>
		<stop  offset="0.75" style="stop-color:#D6CDC3"/>
		<stop  offset="1" style="stop-color:#E6E6E6"/>
	</linearGradient>
	<path class="st1" d="M98.4,38.301c-0.2,0-0.4,0-0.6,0c-2.5,0-5.1,0-7.6,0c-0.2,0-0.4-0.1-0.5-0.3c-1.4-2.5-2.8-5-4.2-7.5
		c-0.6-1.1-1.2-2.2-1.8-3.3c-0.1-0.1-0.1-0.2-0.2-0.3c-0.4,0.6-0.7,1.2-1,1.8c-0.9,1.7-1.8,3.3-2.8,5c-0.6,1.1-1.2,2.1-1.7,3.2
		c-0.2,0.4-0.4,0.7-0.6,1.1c-0.1,0.2-0.3,0.3-0.5,0.3c-2.3,0-4.7,0-7,0c-0.4,0-0.7,0-1.1,0c0.2-0.3,0.3-0.6,0.4-0.8
		c1.1-1.9,2.1-3.8,3.2-5.7c1-1.9,2.1-3.8,3.1-5.7c1.2-2.2,2.4-4.3,3.6-6.5c0.1-0.3,0.2-0.5,0-0.8c-1.4-2.4-2.7-4.9-4.1-7.4
		c-1.7-3.2-3.5-6.3-5.2-9.5c-0.3-0.6-0.7-1.2-1-1.8v-0.1c0.1,0,0.1,0,0.2,0c2.7,0,5.4,0,8,0c0.2,0,0.3,0.1,0.4,0.3
		c0.8,1.4,1.6,2.9,2.4,4.3c0.9,1.6,1.7,3.1,2.6,4.7c0.4,0.7,0.7,1.3,1.1,2c0.1-0.1,0.2-0.2,0.2-0.3c1.4-2.6,2.9-5.2,4.3-7.8
		c0.6-1,1.2-2.1,1.7-3.1c0.1-0.1,0.3-0.1,0.5-0.1c2.7,0,5.5,0,8.2,0c0,0.1,0,0.1,0,0.2c-0.1,0.1-0.2,0.1-0.2,0.2
		c-0.7,1.2-1.3,2.4-2,3.5c-1,1.9-2.1,3.7-3.1,5.6c-1,1.7-1.9,3.5-2.9,5.2c-0.8,1.4-1.5,2.8-2.3,4.1c-0.1,0.2-0.1,0.3,0,0.5
		c0.6,1.1,1.2,2.1,1.8,3.2c1.3,2.4,2.7,4.8,4,7.2s2.7,4.8,4,7.2C97.9,37.501,98.2,37.801,98.4,38.301
		C98.4,38.201,98.4,38.201,98.4,38.301z"/>
	
		<linearGradient id="SVGID_3_" gradientUnits="userSpaceOnUse" x1="48.35" y1="139.2193" x2="48.35" y2="177.5275" gradientTransform="matrix(1 0 0 -1 0 177.5275)">
		<stop  offset="0" style="stop-color:#F0C788"/>
		<stop  offset="0.25" style="stop-color:#E5C18B"/>
		<stop  offset="0.5" style="stop-color:#ACA498"/>
		<stop  offset="0.75" style="stop-color:#D6CDC3"/>
		<stop  offset="1" style="stop-color:#E6E6E6"/>
	</linearGradient>
	<path class="st2" d="M48.3,38.301c-10,0.3-18.6-8.7-18.6-19.1s8.5-19.1,18.5-19.2c10.1-0.1,18.7,8.7,18.8,19.1
		C67,29.501,58.4,38.601,48.3,38.301z M34.1,14.401C34,14.501,34,14.501,34.1,14.401c0,0.2,0.1,0.2,0.2,0.3c0.5,0.4,1,0.7,1.4,1.1
		c1.7,1.3,3.4,2.5,5.1,3.8c0.7,0.5,1.4,1,2,1.5c0.1,0.1,0.3,0.2,0.2,0.4c-0.1,0.4-0.3,0.8-0.4,1.2c-0.4,1.2-0.8,2.5-1.2,3.7
		c-0.6,1.9-1.2,3.7-1.8,5.6c0,0.1,0,0.1,0,0.2c0.1-0.1,0.2-0.1,0.3-0.2c0.4-0.3,0.8-0.6,1.1-0.8c1.6-1.2,3.3-2.4,4.9-3.7
		c0.9-0.7,1.7-1.3,2.6-2c0.1-0.1,0.3,0,0.4,0c1,0.8,2,1.5,3.1,2.3c1.9,1.4,3.7,2.8,5.6,4.2c0,0,0.1,0,0.2,0.1c0-0.1,0-0.1,0-0.1
		c-0.4-1.4-0.9-2.7-1.3-4.1c-0.3-1.1-0.7-2.2-1-3.3c-0.3-1-0.6-2.1-1-3.1c-0.1-0.3-0.1-0.4,0.2-0.6c0.9-0.6,1.7-1.3,2.6-1.9
		c2-1.5,3.9-3,5.9-4.4c0.1-0.1,0.1-0.2,0.2-0.3c-0.3,0-0.5,0-0.6,0c-3.2,0-6.4,0-9.7,0c-0.2,0-0.4,0-0.6,0c-0.1,0-0.3-0.1-0.3-0.2
		c-0.2-0.6-0.4-1.1-0.6-1.7c-0.3-0.9-0.6-1.8-0.8-2.7c-0.3-1.1-0.7-2.1-1-3.2c-0.3-1-0.6-2-0.9-3.1c0,0,0-0.1-0.1-0.1
		c-0.2,0.5-0.3,1-0.5,1.4c-0.3,0.9-0.6,1.8-0.8,2.7c-0.3,1-0.7,2.1-1,3.1c-0.4,1.1-0.7,2.2-1,3.4c-0.1,0.3-0.3,0.4-0.6,0.4
		c-3.4,0-6.7,0-10.1,0C34.5,14.501,34.3,14.401,34.1,14.401z"/>
	<g>
		<path class="st3" d="M57.8,46.901c0,0.6,0,1.2,0,1.8c0,0.9,0,1.9,0,2.8c0,0.3-0.1,0.5-0.4,0.5c-1,0-0.9,0.2-0.9-0.9
			c0-2.3,0-4.6,0-6.9c0-0.5,0-0.5,0.5-0.6c0.6-0.1,0.9,0.3,1.1,0.7c0.7,1.4,1.4,2.9,2.2,4.3c0,0,0.1,0.1,0.2,0.2c0-0.2,0-0.3,0-0.4
			c0-1.4,0-2.9,0-4.3c0-0.3,0.1-0.4,0.4-0.4c1,0,1-0.2,1,1c0,2.3,0,4.6,0,6.8c0,0.5,0,0.5-0.5,0.6s-0.8-0.1-1-0.6
			c-0.7-1.4-1.4-2.8-2.2-4.3C58,47.001,57.9,46.901,57.8,46.901L57.8,46.901z"/>
		<path class="st3" d="M65.3,47.801c0-0.8,0-1.5,0-2.3c0.1-1.5,1.9-2.3,3.1-1.9c1.3,0.4,1.8,1.6,1.8,2.7s0,2.2,0,3.3
			c0,1.2-0.7,2.1-1.8,2.3c-1.6,0.4-3.1-0.5-3.1-2.2C65.3,49.101,65.3,48.401,65.3,47.801L65.3,47.801z M68.8,47.801L68.8,47.801
			c0-0.6,0-1.2,0-1.9c0-0.9-0.9-1.4-1.6-1c-0.5,0.2-0.7,0.7-0.7,1.2c0,1,0,2,0,3.1c0,0.2,0.1,0.4,0.1,0.6c0.2,0.7,0.8,0.9,1.2,0.8
			c0.6-0.1,1-0.6,1-1.2C68.8,48.901,68.8,48.401,68.8,47.801z"/>
		<path class="st3" d="M39.3,51.901c-0.2,0-0.3,0-0.4,0c-0.2,0-0.4-0.1-0.4-0.3c-0.1-0.4-0.2-0.7-0.3-1.1c-0.1-0.3-0.2-0.4-0.6-0.4
			c-0.5,0-0.9,0-1.4,0c-0.3,0-0.4,0.1-0.5,0.4c-0.1,0.4-0.2,0.8-0.4,1.2c0,0.1-0.2,0.2-0.4,0.3c-0.2,0-0.5,0-0.7,0
			c-0.3,0-0.3-0.1-0.3-0.3c0.4-1.5,0.9-3,1.3-4.5c0.3-1,0.5-2,0.8-3c0.1-0.3,0.1-0.6,0.5-0.6c0.9,0,0.9,0,1.1,0.5
			c0.5,1.6,0.9,3.2,1.4,4.8c0.2,0.9,0.5,1.8,0.7,2.6c0.1,0.3,0,0.4-0.3,0.4C39.5,51.901,39.4,51.901,39.3,51.901z M37,45.501
			c-0.1,0.1-0.1,0.1-0.1,0.2c-0.2,0.9-0.4,1.9-0.6,2.8c-0.1,0.2,0,0.3,0.3,0.3c0.4,0,0.7,0,1.1,0c0.1,0,0.2-0.2,0.2-0.3
			c-0.2-0.9-0.4-1.9-0.6-2.8C37.1,45.701,37,45.701,37,45.501z"/>
		<path class="st3" d="M45.3,52.001c-1,0-1.8-0.4-2.4-1.1c-0.2-0.2-0.2-0.3,0-0.5l0,0c0.2-0.2,0.5-0.5,0.7-0.5s0.4,0.3,0.6,0.5
			c0.6,0.5,1.7,0.5,2.1-0.2c0.3-0.6,0.1-1.3-0.5-1.6c-0.6-0.2-1.2-0.4-1.7-0.7c-0.7-0.4-1.2-0.9-1.2-1.8s0.2-1.7,1-2.2
			c1.2-0.7,2.6-0.4,3.5,0.4c0.2,0.2,0.2,0.4,0,0.6c0,0.1-0.1,0.1-0.2,0.2c-0.3,0.4-0.5,0.4-0.9,0c-0.4-0.3-0.8-0.5-1.4-0.3
			c-0.4,0.1-0.6,0.4-0.7,0.8s0.1,0.7,0.4,0.9c0.4,0.2,0.9,0.4,1.4,0.6c0.3,0.1,0.6,0.2,0.8,0.4c1,0.6,1.2,1.8,1,2.7
			c-0.3,1.1-1.1,1.8-2.2,1.8C45.5,52.001,45.4,52.001,45.3,52.001z"/>
		<path class="st3" d="M27.8,47.701c0,0.7,0,1.3,0.1,2c0,0.5,0.3,0.7,0.8,0.8c0.4,0.1,0.9,0,1.1-0.3c0.3-0.5,0.6-0.5,1.1-0.3
			c0.4,0.2,0.5,0.3,0.3,0.7c-0.5,1-1.6,1.5-2.7,1.2c-1.1-0.2-1.9-1.1-1.9-2.3c0-1.3,0-2.5,0-3.8c0-1.8,1.6-2.7,3-2.4
			c0.8,0.2,1.3,0.7,1.7,1.4c0.1,0.2,0.1,0.4-0.2,0.5c-0.1,0-0.2,0.1-0.3,0.1c-0.3,0.1-0.6,0.2-0.8-0.2c-0.4-0.7-1.3-0.7-1.8-0.1
			c-0.2,0.2-0.2,0.6-0.3,0.9C27.8,46.601,27.8,47.201,27.8,47.701L27.8,47.701z"/>
		<path class="st3" d="M52.6,47.801c0,1.2,0,2.5,0,3.7c0,0.4-0.1,0.5-0.5,0.4c-0.9-0.1-0.9,0-0.9-1c0-2.3,0-4.6,0-7
			c0-0.5,0-0.5,0.5-0.5c0.8,0,0.8,0,0.8,0.9C52.6,45.501,52.6,46.601,52.6,47.801L52.6,47.801z"/>
	</g>
</g>
</svg>
